<mxfile host="app.diagrams.net" modified="2023-04-27T08:17:58.004Z" agent="Mozilla/5.0 (Windows NT 10.0; Win64; x64; rv:109.0) Gecko/20100101 Firefox/112.0" etag="LAkwg3e1iA8lnK9aZm40" version="21.1.1" type="device">
  <diagram name="Page-1" id="DS1Rt81gHVZ1ifrNgZym">
    <mxGraphModel dx="1562" dy="826" grid="1" gridSize="10" guides="1" tooltips="1" connect="1" arrows="1" fold="1" page="1" pageScale="1" pageWidth="850" pageHeight="1100" math="0" shadow="0">
      <root>
        <mxCell id="0" />
        <mxCell id="1" parent="0" />
        <mxCell id="FTzH7iTK70n0XZobCsfS-1" value="User" style="shape=cylinder3;whiteSpace=wrap;html=1;boundedLbl=1;backgroundOutline=1;size=15;fillColor=#d5e8d4;strokeColor=#82b366;" vertex="1" parent="1">
          <mxGeometry x="275" y="460" width="80" height="80" as="geometry" />
        </mxCell>
        <mxCell id="FTzH7iTK70n0XZobCsfS-2" value="BlockedToken" style="shape=cylinder3;whiteSpace=wrap;html=1;boundedLbl=1;backgroundOutline=1;size=15;fillColor=#f8cecc;strokeColor=#b85450;" vertex="1" parent="1">
          <mxGeometry x="275" y="580" width="80" height="80" as="geometry" />
        </mxCell>
        <mxCell id="FTzH7iTK70n0XZobCsfS-16" style="edgeStyle=orthogonalEdgeStyle;rounded=0;orthogonalLoop=1;jettySize=auto;html=1;exitX=1;exitY=0.5;exitDx=0;exitDy=0;entryX=0;entryY=0.5;entryDx=0;entryDy=0;" edge="1" parent="1" source="FTzH7iTK70n0XZobCsfS-3" target="FTzH7iTK70n0XZobCsfS-6">
          <mxGeometry relative="1" as="geometry" />
        </mxCell>
        <mxCell id="FTzH7iTK70n0XZobCsfS-23" value="Requests routed to APIs" style="edgeLabel;html=1;align=center;verticalAlign=middle;resizable=0;points=[];" vertex="1" connectable="0" parent="FTzH7iTK70n0XZobCsfS-16">
          <mxGeometry x="-0.1412" y="2" relative="1" as="geometry">
            <mxPoint y="1" as="offset" />
          </mxGeometry>
        </mxCell>
        <mxCell id="FTzH7iTK70n0XZobCsfS-3" value="Flask Server" style="rounded=0;whiteSpace=wrap;html=1;" vertex="1" parent="1">
          <mxGeometry x="115" y="260" width="110" height="80" as="geometry" />
        </mxCell>
        <mxCell id="FTzH7iTK70n0XZobCsfS-18" style="edgeStyle=orthogonalEdgeStyle;rounded=0;orthogonalLoop=1;jettySize=auto;html=1;" edge="1" parent="1" source="FTzH7iTK70n0XZobCsfS-4" target="FTzH7iTK70n0XZobCsfS-1">
          <mxGeometry relative="1" as="geometry" />
        </mxCell>
        <mxCell id="FTzH7iTK70n0XZobCsfS-4" value="User Model" style="rounded=0;whiteSpace=wrap;html=1;fillColor=#d5e8d4;gradientColor=#97d077;strokeColor=#82b366;" vertex="1" parent="1">
          <mxGeometry x="435" y="470" width="120" height="60" as="geometry" />
        </mxCell>
        <mxCell id="FTzH7iTK70n0XZobCsfS-19" style="edgeStyle=orthogonalEdgeStyle;rounded=0;orthogonalLoop=1;jettySize=auto;html=1;entryX=1;entryY=0.5;entryDx=0;entryDy=0;entryPerimeter=0;" edge="1" parent="1" source="FTzH7iTK70n0XZobCsfS-5" target="FTzH7iTK70n0XZobCsfS-2">
          <mxGeometry relative="1" as="geometry" />
        </mxCell>
        <mxCell id="FTzH7iTK70n0XZobCsfS-5" value="BlockedToken Model" style="rounded=0;whiteSpace=wrap;html=1;fillColor=#f8cecc;gradientColor=#ea6b66;strokeColor=#b85450;" vertex="1" parent="1">
          <mxGeometry x="435" y="590" width="120" height="60" as="geometry" />
        </mxCell>
        <mxCell id="FTzH7iTK70n0XZobCsfS-17" style="edgeStyle=orthogonalEdgeStyle;rounded=0;orthogonalLoop=1;jettySize=auto;html=1;entryX=0;entryY=0.5;entryDx=0;entryDy=0;" edge="1" parent="1" source="FTzH7iTK70n0XZobCsfS-6" target="FTzH7iTK70n0XZobCsfS-7">
          <mxGeometry relative="1" as="geometry">
            <Array as="points">
              <mxPoint x="545" y="300" />
              <mxPoint x="545" y="300" />
            </Array>
          </mxGeometry>
        </mxCell>
        <mxCell id="FTzH7iTK70n0XZobCsfS-20" style="edgeStyle=orthogonalEdgeStyle;rounded=0;orthogonalLoop=1;jettySize=auto;html=1;" edge="1" parent="1" source="FTzH7iTK70n0XZobCsfS-6">
          <mxGeometry relative="1" as="geometry">
            <mxPoint x="455" y="470" as="targetPoint" />
            <Array as="points">
              <mxPoint x="455" y="470" />
            </Array>
          </mxGeometry>
        </mxCell>
        <mxCell id="FTzH7iTK70n0XZobCsfS-21" style="edgeStyle=orthogonalEdgeStyle;rounded=0;orthogonalLoop=1;jettySize=auto;html=1;entryX=1;entryY=0.5;entryDx=0;entryDy=0;" edge="1" parent="1" source="FTzH7iTK70n0XZobCsfS-6" target="FTzH7iTK70n0XZobCsfS-5">
          <mxGeometry relative="1" as="geometry">
            <Array as="points">
              <mxPoint x="455" y="440" />
              <mxPoint x="635" y="440" />
              <mxPoint x="635" y="620" />
            </Array>
          </mxGeometry>
        </mxCell>
        <mxCell id="FTzH7iTK70n0XZobCsfS-6" value="API views" style="rounded=0;whiteSpace=wrap;html=1;fillColor=#fff2cc;strokeColor=#d6b656;" vertex="1" parent="1">
          <mxGeometry x="395" y="267.5" width="120" height="65" as="geometry" />
        </mxCell>
        <mxCell id="FTzH7iTK70n0XZobCsfS-7" value="Auth Utils" style="rounded=0;whiteSpace=wrap;html=1;fillColor=#e1d5e7;strokeColor=#9673a6;" vertex="1" parent="1">
          <mxGeometry x="585" y="270" width="120" height="60" as="geometry" />
        </mxCell>
        <mxCell id="FTzH7iTK70n0XZobCsfS-9" style="edgeStyle=orthogonalEdgeStyle;rounded=0;orthogonalLoop=1;jettySize=auto;html=1;" edge="1" parent="1" source="FTzH7iTK70n0XZobCsfS-8" target="FTzH7iTK70n0XZobCsfS-2">
          <mxGeometry relative="1" as="geometry">
            <Array as="points">
              <mxPoint x="165" y="620" />
            </Array>
          </mxGeometry>
        </mxCell>
        <mxCell id="FTzH7iTK70n0XZobCsfS-10" style="edgeStyle=orthogonalEdgeStyle;rounded=0;orthogonalLoop=1;jettySize=auto;html=1;" edge="1" parent="1" source="FTzH7iTK70n0XZobCsfS-8" target="FTzH7iTK70n0XZobCsfS-1">
          <mxGeometry relative="1" as="geometry">
            <Array as="points">
              <mxPoint x="165" y="520" />
              <mxPoint x="355" y="520" />
            </Array>
          </mxGeometry>
        </mxCell>
        <mxCell id="FTzH7iTK70n0XZobCsfS-11" value="Database Migration Setup" style="edgeLabel;html=1;align=center;verticalAlign=middle;resizable=0;points=[];" vertex="1" connectable="0" parent="FTzH7iTK70n0XZobCsfS-10">
          <mxGeometry x="-0.5211" y="-3" relative="1" as="geometry">
            <mxPoint x="6" y="-23" as="offset" />
          </mxGeometry>
        </mxCell>
        <mxCell id="FTzH7iTK70n0XZobCsfS-22" value="Start Flask Server" style="edgeStyle=orthogonalEdgeStyle;rounded=0;orthogonalLoop=1;jettySize=auto;html=1;entryX=0.5;entryY=1;entryDx=0;entryDy=0;" edge="1" parent="1" source="FTzH7iTK70n0XZobCsfS-8" target="FTzH7iTK70n0XZobCsfS-3">
          <mxGeometry relative="1" as="geometry" />
        </mxCell>
        <mxCell id="FTzH7iTK70n0XZobCsfS-8" value="Main Driver" style="rounded=0;whiteSpace=wrap;html=1;fillColor=#ffcd28;gradientColor=#ffa500;strokeColor=#d79b00;" vertex="1" parent="1">
          <mxGeometry x="110" y="410" width="120" height="60" as="geometry" />
        </mxCell>
        <mxCell id="FTzH7iTK70n0XZobCsfS-24" value="Password hashing, JWT blocking, validation etc" style="text;html=1;strokeColor=none;fillColor=none;align=center;verticalAlign=middle;whiteSpace=wrap;rounded=0;" vertex="1" parent="1">
          <mxGeometry x="585" y="230" width="130" height="30" as="geometry" />
        </mxCell>
      </root>
    </mxGraphModel>
  </diagram>
</mxfile>
